<svg height="512" viewBox="0 0 512 512" width="512" xmlns="http://www.w3.org/2000/svg"><path d="m494.229 304.423-21.28-26.4-.025-.027-21.287-26.417a8 8 0 0 0 -5.374-2.935l-71.587-7.7a8.005 8.005 0 0 0 -5.382 1.358l-34.385 23.6-7.7-4.333 13.731-29.957a8 8 0 0 0 -8.195-11.28l-32.736 3.8-6.5-32.311a8 8 0 0 0 -13.26-4.31l-24.249 22.318-24.253-22.316a8 8 0 0 0 -13.26 4.31l-6.5 32.311-32.736-3.8a8 8 0 0 0 -8.195 11.28l13.731 29.957-7.7 4.333-34.385-23.6a8 8 0 0 0 -5.382-1.359l-71.587 7.7a8 8 0 0 0 -5.374 2.934l-42.588 52.845a8 8 0 0 0 -1.725 5.877l6 55.68a8 8 0 0 0 7.944 7.144 8.144 8.144 0 0 0 .865-.047l16.894-1.817a32.042 32.042 0 0 0 29.9 20.745 32.4 32.4 0 0 0 3.484-.188 32.026 32.026 0 0 0 28.25-27.184l65.631-7.057a32.042 32.042 0 0 0 29.9 20.742 32.4 32.4 0 0 0 3.484-.188 32.026 32.026 0 0 0 28.25-27.182l19.468-2.093 19.232 2.105a32.026 32.026 0 0 0 28.248 27.17 32.4 32.4 0 0 0 3.484.188 32.041 32.041 0 0 0 29.9-20.732l65.638 7.065a32.025 32.025 0 0 0 28.247 27.166 32.4 32.4 0 0 0 3.484.188 32.042 32.042 0 0 0 29.9-20.742l16.9 1.814a8.125 8.125 0 0 0 .864.047 8 8 0 0 0 7.944-7.144l6-55.68a8 8 0 0 0 -1.728-5.878zm-39.529-23.549-24.167 14.332-13.258-1.423 3.42-31.8 20.568 2.212zm-78.787-23.7 28.874 3.1-3.42 31.8-65.995-7.082zm-173.513 4.426-10.878-23.731 25.933 3.011a8.009 8.009 0 0 0 8.766-6.37l5.148-25.6 19.212 17.677a8 8 0 0 0 10.834 0l19.212-17.677 5.148 25.6a8 8 0 0 0 8.766 6.37l25.933-3.011-10.874 23.731a8 8 0 0 0 3.348 10.305l7.265 4.089-9.818 6.738-54.185 1.839v.034c-.14-.012-.277-.029-.418-.034l-54.185-1.839-9.818-6.738 7.265-4.089a8 8 0 0 0 3.346-10.305zm-25.767 23.4-65.993 7.1-3.422-31.816 28.874-3.1zm-105.891-20.8 20.568-2.212 3.422 31.812-13.257 1.426-24.164-14.363zm19.429 105.841a16 16 0 1 1 -14.171-25.947 16.207 16.207 0 0 1 1.744-.094 16 16 0 0 1 12.427 26.041zm127.266-13.687a16 16 0 1 1 -14.169-25.947 16.207 16.207 0 0 1 1.742-.094 16 16 0 0 1 12.427 26.041zm17.5-21.313a32.014 32.014 0 0 0 -61.628 6.627l-65.639 7.058a32.014 32.014 0 0 0 -61.627 6.627l-8.946.962-4.788-44.432 14.859-18.436 28.423 16.9a8 8 0 0 0 4.088 1.123 7.914 7.914 0 0 0 .855-.046l118.686-12.766 49.086 1.666 3.527 32.9zm87.992 12.985a16 16 0 1 1 -15.939-17.713 16.207 16.207 0 0 1 1.742.094 16 16 0 0 1 14.2 17.619zm127.271 13.687a16 16 0 1 1 -15.944-17.713 16.193 16.193 0 0 1 1.742.094 16 16 0 0 1 14.2 17.619zm24.708-5.4-8.946-.961a32.014 32.014 0 0 0 -61.634-6.612l-65.63-7.064a32.014 32.014 0 0 0 -61.634-6.627l-9.044-.99-3.62-33.759 48.353-1.641 118.713 12.741a7.993 7.993 0 0 0 4.934-1.073l28.44-16.866 14.851 18.424z"/><path d="m248 144.004h16v16h-16z"/><path d="m248 112.004h16v16h-16z"/><path d="m264 128.004h16v16h-16z"/><path d="m232 128.004h16v16h-16z"/><path d="m376 208.004h16v16h-16z"/><path d="m376 160.004h16v16h-16z"/><path d="m400 184.004h16v16h-16z"/><path d="m352 184.004h16v16h-16z"/><path d="m120 208.004h16v16h-16z"/><path d="m120 160.004h16v16h-16z"/><path d="m144 184.004h16v16h-16z"/><path d="m96 184.004h16v16h-16z"/></svg>