<?xml version="1.0" encoding="iso-8859-1"?>
<!-- Generator: Adobe Illustrator 18.1.1, SVG Export Plug-In . SVG Version: 6.00 Build 0)  -->
<svg version="1.1" id="Capa_1" xmlns="http://www.w3.org/2000/svg" xmlns:xlink="http://www.w3.org/1999/xlink" x="0px" y="0px"
	 viewBox="0 0 179.006 179.006" style="enable-background:new 0 0 179.006 179.006;" xml:space="preserve">
<g>
	<g>
		<path style="fill:#010002;" d="M153.784,21.027c-1.426-0.477-3.109-0.704-5-0.704c-2.971,0-5.257,0.638-6.802,1.903
			c-0.913,0.722-1.772,1.957-2.608,3.664h18.879C158.068,23.545,156.589,21.922,153.784,21.027z"/>
		<path style="fill:#010002;" d="M117.995,31.744c1.808,0.776,3.682,1.146,5.651,1.146c2.363,0,4.201-0.442,5.549-1.366
			c1.343-0.901,2.285-2.13,2.798-3.664h-16.85C115.256,29.679,116.205,30.968,117.995,31.744z"/>
		<path style="fill:#010002;" d="M137.769,3.168c-22.787,0-41.243,10.615-41.243,23.73s18.456,23.742,41.243,23.742
			c22.782,0,41.237-10.627,41.237-23.742S160.551,3.168,137.769,3.168z M170.521,27.865h-6.969
			c-0.453,3.998-2.906,6.725-7.393,8.151c-2.429,0.794-5.68,1.181-9.798,1.181v-3.664c3.288-0.119,5.651-0.406,7.166-0.883
			c2.703-0.871,4.219-2.464,4.571-4.785h-19.559c-0.973,2.977-2.625,5.191-4.911,6.605c-2.321,1.426-5.49,2.13-9.541,2.13
			c-3.652,0-6.945-0.752-9.851-2.297c-2.9-1.528-4.392-3.682-4.451-6.444h-4.779V25.89h4.72c0.34-2.727,1.736-4.833,4.195-6.313
			c2.488-1.462,5.734-2.22,9.804-2.303v3.616c-1.838,0.101-3.395,0.376-4.708,0.859c-2.399,0.871-3.688,2.25-3.801,4.135h17.471
			c1.575-3.186,3.037-5.352,4.368-6.504c2.261-1.862,5.597-2.781,10-2.781c6.367,0,10.878,1.181,13.557,3.568
			c1.486,1.331,2.464,3.234,2.942,5.716h6.969C170.521,25.884,170.521,27.865,170.521,27.865z"/>
		<path style="fill:#010002;" d="M137.769,53.815c-20.926,0-38.134-8.962-40.837-20.568c-0.239,1.044-0.406,2.1-0.406,3.174
			c0,13.109,18.456,23.742,41.243,23.742c22.782,0,41.237-10.627,41.237-23.742c0-1.08-0.173-2.13-0.406-3.174
			C175.897,44.853,158.683,53.815,137.769,53.815z"/>
		<path style="fill:#010002;" d="M137.769,63.332c-20.926,0-38.134-8.962-40.837-20.568c-0.239,1.044-0.406,2.1-0.406,3.174
			c0,13.109,18.456,23.742,41.243,23.742c22.782,0,41.237-10.627,41.237-23.742c0-1.08-0.173-2.13-0.406-3.174
			C175.897,54.37,158.683,63.332,137.769,63.332z"/>
		<path style="fill:#010002;" d="M137.769,72.855c-20.926,0-38.134-8.962-40.837-20.568c-0.239,1.044-0.406,2.1-0.406,3.168
			c0,13.115,18.456,23.742,41.243,23.742c22.782,0,41.237-10.627,41.237-23.742c0-1.074-0.173-2.124-0.406-3.168
			C175.897,63.893,158.683,72.855,137.769,72.855z"/>
		<path style="fill:#010002;" d="M137.769,82.373c-20.926,0-38.134-8.956-40.837-20.568c-0.239,1.044-0.406,2.1-0.406,3.174
			c0,13.115,18.456,23.742,41.243,23.742c22.782,0,41.237-10.621,41.237-23.742c0-1.08-0.173-2.13-0.406-3.174
			C175.897,73.416,158.683,82.373,137.769,82.373z"/>
		<path style="fill:#010002;" d="M137.769,93.298c-20.926,0-38.134-8.962-40.837-20.568c-0.239,1.044-0.406,2.1-0.406,3.174
			c0,13.109,18.456,23.742,41.243,23.742c22.782,0,41.237-10.627,41.237-23.742c0-1.08-0.173-2.13-0.406-3.174
			C175.897,84.336,158.683,93.298,137.769,93.298z"/>
		<path style="fill:#010002;" d="M137.769,102.809c-20.926,0-38.134-8.962-40.837-20.562c-0.239,1.044-0.406,2.1-0.406,3.174
			c0,13.115,18.456,23.742,41.243,23.742c22.782,0,41.237-10.627,41.237-23.742c0-1.08-0.173-2.13-0.406-3.174
			C175.897,93.853,158.683,102.809,137.769,102.809z"/>
		<path style="fill:#010002;" d="M137.769,112.338c-20.926,0-38.134-8.968-40.837-20.568c-0.239,1.038-0.406,2.106-0.406,3.168
			c0,13.103,18.456,23.742,41.243,23.742c22.782,0,41.237-10.639,41.237-23.742c0-1.08-0.173-2.124-0.406-3.168
			C175.897,103.37,158.683,112.338,137.769,112.338z"/>
		<path style="fill:#010002;" d="M137.769,121.855c-20.926,0-38.134-8.962-40.837-20.556c-0.239,1.038-0.406,2.094-0.406,3.162
			c0,13.109,18.456,23.742,41.243,23.742c22.782,0,41.237-10.633,41.237-23.742c0-1.08-0.173-2.124-0.406-3.162
			C175.897,112.893,158.683,121.855,137.769,121.855z"/>
		<path style="fill:#010002;" d="M57.27,108.144c-1.432-0.471-3.109-0.698-5.006-0.698c-2.966,0-5.251,0.638-6.796,1.903
			c-0.919,0.722-1.772,1.945-2.608,3.658h18.879C61.542,110.662,60.063,109.033,57.27,108.144z"/>
		<path style="fill:#010002;" d="M21.481,118.86c1.808,0.776,3.682,1.14,5.651,1.14c2.363,0,4.195-0.436,5.549-1.36
			c1.343-0.901,2.285-2.136,2.798-3.664H18.617C18.742,116.79,19.679,118.09,21.481,118.86z"/>
		<path style="fill:#010002;" d="M41.237,90.291C18.45,90.291,0,100.9,0,114.015c0,13.121,18.45,23.742,41.237,23.742
			s41.243-10.621,41.243-23.742C82.48,100.9,64.025,90.291,41.237,90.291z M73.989,114.988H67.02
			c-0.448,3.986-2.9,6.713-7.387,8.145c-2.429,0.794-5.68,1.175-9.804,1.175v-3.658c3.288-0.119,5.651-0.406,7.166-0.883
			c2.709-0.871,4.231-2.464,4.571-4.779H42.013c-0.973,2.971-2.631,5.185-4.911,6.593c-2.321,1.432-5.49,2.13-9.547,2.13
			c-3.652,0-6.939-0.758-9.845-2.297c-2.906-1.533-4.398-3.682-4.457-6.444H8.479v-1.969h4.714c0.352-2.727,1.742-4.839,4.201-6.313
			c2.482-1.468,5.734-2.22,9.798-2.303v3.61c-1.832,0.101-3.401,0.37-4.708,0.859c-2.393,0.871-3.682,2.25-3.801,4.129h17.483
			c1.569-3.18,3.031-5.346,4.362-6.504c2.255-1.862,5.597-2.781,9.995-2.781c6.373,0,10.884,1.181,13.563,3.574
			c1.48,1.337,2.458,3.24,2.936,5.71h6.969V114.988z"/>
		<path style="fill:#010002;" d="M41.237,140.931c-20.926,0-38.128-8.968-40.831-20.568C0.161,121.402,0,122.458,0,123.532
			c0,13.109,18.45,23.742,41.237,23.742s41.243-10.627,41.243-23.742c0-1.086-0.173-2.13-0.406-3.168
			C79.377,131.963,62.157,140.931,41.237,140.931z"/>
		<path style="fill:#010002;" d="M41.237,150.449c-20.926,0-38.128-8.962-40.831-20.562C0.161,130.919,0,131.981,0,133.055
			c0,13.109,18.45,23.742,41.237,23.742S82.48,146.17,82.48,133.055c0-1.08-0.173-2.13-0.406-3.168
			C79.377,141.486,62.157,150.449,41.237,150.449z"/>
		<path style="fill:#010002;" d="M41.237,159.978c-20.926,0-38.128-8.962-40.831-20.568C0.161,140.448,0,141.504,0,142.578
			c0,13.109,18.45,23.742,41.237,23.742s41.243-10.627,41.243-23.742c0-1.08-0.173-2.124-0.406-3.168
			C79.377,151.015,62.157,159.978,41.237,159.978z"/>
		<path style="fill:#010002;" d="M41.237,169.489c-20.926,0-38.128-8.968-40.831-20.568C0.161,149.959,0,151.027,0,152.096
			c0,13.109,18.45,23.742,41.237,23.742s41.243-10.627,41.243-23.742c0-1.086-0.173-2.136-0.406-3.174
			C79.377,160.521,62.157,169.489,41.237,169.489z"/>
		<path style="fill:#010002;" d="M57.27,34.852c-1.432-0.477-3.109-0.704-5-0.704c-2.971,0-5.257,0.638-6.802,1.903
			c-0.913,0.722-1.772,1.957-2.608,3.664h18.879C61.542,37.371,60.063,35.742,57.27,34.852z"/>
		<path style="fill:#010002;" d="M21.481,45.569c1.808,0.77,3.688,1.146,5.651,1.146c2.363,0,4.201-0.442,5.549-1.366
			c1.349-0.901,2.285-2.13,2.798-3.664H18.617C18.742,43.498,19.679,44.793,21.481,45.569z"/>
		<path style="fill:#010002;" d="M41.237,16.994C18.456,16.994,0,27.609,0,40.724s18.456,23.742,41.237,23.742
			c22.787,0,41.243-10.627,41.243-23.742S64.025,16.994,41.237,16.994z M74.001,41.685H67.02c-0.448,3.998-2.9,6.719-7.387,8.151
			c-2.429,0.788-5.68,1.181-9.804,1.181v-3.664c3.288-0.119,5.651-0.406,7.166-0.883c2.709-0.871,4.231-2.464,4.571-4.785H42.013
			c-0.973,2.977-2.619,5.191-4.911,6.605c-2.315,1.426-5.49,2.13-9.547,2.13c-3.652,0-6.939-0.758-9.845-2.297
			c-2.906-1.528-4.398-3.682-4.457-6.444H8.479V39.71h4.714c0.352-2.727,1.742-4.833,4.201-6.313c2.482-1.462,5.74-2.22,9.798-2.303
			v3.616c-1.832,0.095-3.401,0.376-4.708,0.859c-2.393,0.871-3.682,2.25-3.801,4.135h17.483c1.575-3.186,3.031-5.352,4.362-6.51
			c2.255-1.856,5.597-2.775,9.995-2.775c6.373,0,10.884,1.181,13.563,3.568c1.48,1.331,2.458,3.234,2.936,5.716h6.981L74.001,41.685
			L74.001,41.685z"/>
		<path style="fill:#010002;" d="M41.237,67.634c-20.914,0-38.128-8.962-40.831-20.568C0.173,48.111,0,49.167,0,50.241
			C0,63.35,18.456,73.983,41.237,73.983c22.787,0,41.243-10.627,41.243-23.742c0-1.08-0.167-2.13-0.406-3.174
			C79.377,58.672,62.163,67.634,41.237,67.634z"/>
		<path style="fill:#010002;" d="M41.237,77.158c-20.914,0-38.128-8.962-40.831-20.568C0.173,57.634,0,58.69,0,59.758
			C0,72.873,18.456,83.5,41.237,83.5c22.787,0,41.243-10.627,41.243-23.742c0-1.074-0.167-2.124-0.406-3.168
			C79.377,68.195,62.163,77.158,41.237,77.158z"/>
	</g>
</g>
<g>
</g>
<g>
</g>
<g>
</g>
<g>
</g>
<g>
</g>
<g>
</g>
<g>
</g>
<g>
</g>
<g>
</g>
<g>
</g>
<g>
</g>
<g>
</g>
<g>
</g>
<g>
</g>
<g>
</g>
</svg>
