<svg height="512" viewBox="0 0 128 128" width="512" xmlns="http://www.w3.org/2000/svg"><g><path d="m78.92 52.367-13.12-32.761a4.518 4.518 0 0 0 -5.873-2.514l-32.763 13.122a4.525 4.525 0 0 0 -2.515 5.874l13.122 32.76a4.519 4.519 0 0 0 5.875 2.514l32.759-13.122a4.523 4.523 0 0 0 2.515-5.873zm-3.82 2.623-32.755 13.122a.992.992 0 0 1 -.78-.008 1.011 1.011 0 0 1 -.544-.557l-13.121-32.76a1.017 1.017 0 0 1 .566-1.323l32.76-13.122a1.017 1.017 0 0 1 1.322.565l13.122 32.761a1.017 1.017 0 0 1 -.57 1.322z"/><path d="m44.446 35.437a5.193 5.193 0 1 0 2.731 6.818 5.161 5.161 0 0 0 -2.732-6.818zm-.487 5.441a1.694 1.694 0 0 1 -3.13-.037 1.7 1.7 0 0 1 1.571-2.324 1.693 1.693 0 0 1 1.557 2.361z"/><path d="m63.213 43.469a5.194 5.194 0 1 0 2.731 6.819 5.2 5.2 0 0 0 -2.732-6.82zm-.487 5.441a1.695 1.695 0 1 1 -1.555-2.36 1.674 1.674 0 0 1 .664.137 1.7 1.7 0 0 1 .891 2.223z"/><path d="m99.157 66.906h-35.291a4.523 4.523 0 0 0 -4.517 4.518v35.291a4.522 4.522 0 0 0 4.517 4.517h35.291a4.523 4.523 0 0 0 4.518-4.517v-35.291a4.523 4.523 0 0 0 -4.518-4.518zm1.018 39.809a1.018 1.018 0 0 1 -1.018 1.017h-35.291a1.018 1.018 0 0 1 -1.017-1.017v-35.291a1.018 1.018 0 0 1 1.017-1.018h35.291a1.018 1.018 0 0 1 1.018 1.018z"/><path d="m71.306 74.463a5.194 5.194 0 1 0 5.194 5.194 5.2 5.2 0 0 0 -5.194-5.194zm0 6.888a1.694 1.694 0 1 1 1.694-1.694 1.7 1.7 0 0 1 -1.694 1.694z"/><path d="m91.718 74.463a5.194 5.194 0 1 0 5.194 5.194 5.2 5.2 0 0 0 -5.194-5.194zm0 6.888a1.694 1.694 0 1 1 1.694-1.694 1.7 1.7 0 0 1 -1.694 1.694z"/><path d="m71.306 93.288a5.194 5.194 0 1 0 5.194 5.193 5.2 5.2 0 0 0 -5.194-5.193zm0 6.888a1.694 1.694 0 1 1 1.694-1.695 1.7 1.7 0 0 1 -1.694 1.695z"/><path d="m91.718 93.288a5.194 5.194 0 1 0 5.194 5.193 5.2 5.2 0 0 0 -5.194-5.193zm0 6.888a1.694 1.694 0 1 1 1.694-1.7 1.7 1.7 0 0 1 -1.694 1.7z"/></g></svg>